<?xml version="1.0" encoding="utf-8"?>
<!-- Svg Vector Icons : http://www.onlinewebfonts.com/icon -->
<!DOCTYPE svg PUBLIC "-//W3C//DTD SVG 1.1//EN" "http://www.w3.org/Graphics/SVG/1.1/DTD/svg11.dtd">
<svg version="1.1" xmlns="http://www.w3.org/2000/svg" xmlns:xlink="http://www.w3.org/1999/xlink" x="0px" y="0px" viewBox="0 0 1000 1000" enable-background="new 0 0 1000 1000" xml:space="preserve">
<metadata> Svg Vector Icons : http://www.onlinewebfonts.com/icon </metadata>
<g><path d="M891.9,938.6"/><path d="M475.6,10c-202.6,0-367.5,158.9-367.5,354.2c0,64.7,18.3,128.1,53.5,184.1l288.8,428.2c5.7,8.5,15.2,13.5,25.4,13.5h0c10.2,0,19.7-5.1,25.4-13.5l289-429.3c34.6-55.1,52.8-118.4,52.8-183C843.1,168.9,678.2,10,475.6,10z M738.9,513.8L475.8,904.6L213,514.9c-28.5-45.4-43.6-97.5-43.6-150.7c0-161.5,137.4-292.9,306.2-292.9c168.9,0,306.2,131.4,306.2,292.9C781.8,417.3,766.8,469.3,738.9,513.8z M475.6,194.4c-96,0-174.1,75.6-174.1,168.4c0,92.9,78.1,168.4,174.1,168.4c96,0,174.1-75.6,174.1-168.4C649.7,270,571.6,194.4,475.6,194.4z M475.6,470c-62.2,0-112.9-48.1-112.9-107.2c0-59.1,50.6-107.2,112.9-107.2c62.2,0,112.9,48.1,112.9,107.2S537.8,470,475.6,470z"/></g>
</svg>