<?xml version="1.0" standalone="no"?>
<!DOCTYPE svg PUBLIC "-//W3C//DTD SVG 20010904//EN"
 "http://www.w3.org/TR/2001/REC-SVG-20010904/DTD/svg10.dtd">
<svg version="1.0" xmlns="http://www.w3.org/2000/svg"
 width="736.000000pt" height="980.000000pt" viewBox="0 0 736.000000 980.000000"
 preserveAspectRatio="xMidYMid meet">

<g transform="translate(0.000000,980.000000) scale(0.100000,-0.100000)"
fill="#000000"  stroke="#34CB79">
<path  d="M3385 9790 c-763 -68 -1445 -340 -2042 -816 -201 -161 -488 -464
-661 -701 -157 -213 -342 -557 -440 -815 -162 -427 -243 -891 -229 -1313 9
-268 57 -507 177 -865 340 -1020 1139 -2417 2373 -4145 361 -505 719 -976 774
-1017 220 -166 520 -153 716 31 128 120 952 1262 1432 1986 1078 1625 1680
2845 1837 3723 19 109 22 162 23 367 0 311 -27 535 -101 830 -322 1282 -1339
2295 -2639 2628 -162 42 -316 70 -500 93 -153 18 -576 26 -720 14z m635 -636
c699 -80 1328 -382 1820 -874 463 -463 742 -1018 845 -1680 25 -164 31 -471
11 -605 -132 -896 -997 -2507 -2394 -4462 -285 -399 -615 -843 -624 -840 -17
5 -515 684 -799 1090 -1267 1807 -2064 3309 -2209 4164 -20 114 -22 152 -17
348 7 280 36 470 113 729 339 1146 1348 1985 2559 2130 166 19 526 20 695 0z"/>
<path d="M3490 7953 c-529 -69 -990 -393 -1225 -862 -49 -98 -110 -284 -132
-401 -26 -142 -24 -421 5 -556 31 -146 65 -243 131 -379 313 -641 1041 -987
1750 -834 596 130 1074 606 1195 1192 69 331 29 654 -119 964 -79 167 -161
280 -305 423 -142 143 -254 223 -425 305 -229 110 -383 145 -650 150 -104 2
-206 1 -225 -2z m418 -703 c255 -72 448 -233 558 -465 56 -119 73 -187 81
-320 16 -300 -126 -580 -381 -750 -236 -156 -546 -191 -804 -89 -219 87 -402
264 -490 476 -94 225 -80 506 35 717 130 240 355 401 630 451 81 15 289 4 371
-20z"/>
</g>
</svg>
