<svg xmlns="http://www.w3.org/2000/svg" width="182" height="44" fill="none"><rect id="backgroundrect" width="100%" height="100%" x="0" y="0" fill="none" stroke="none"/>
    
    
    
    
    
    





















<g class="currentLayer" style=""><title>Layer 1</title><path d="M72 33.832V11.656H86.976V15.848H76.992V20.2H85.856V24.296H76.992V29.64H87.712V33.832H72Z" fill="#322153" id="svg_1"/><path d="M89.9112 25.416C89.9112 24.2 90.1032 23.0587 90.4872 21.992C90.8926 20.904 91.4686 19.9653 92.2153 19.176C92.9619 18.3653 93.8686 17.7253 94.9352 17.256C96.0019 16.7867 97.2179 16.552 98.5833 16.552C99.4792 16.552 100.301 16.6373 101.047 16.808C101.794 16.9573 102.519 17.1813 103.223 17.48L102.231 21.288C101.783 21.1173 101.293 20.968 100.759 20.84C100.226 20.712 99.6286 20.648 98.9673 20.648C97.5593 20.648 96.5033 21.0853 95.7992 21.96C95.1166 22.8347 94.7752 23.9867 94.7752 25.416C94.7752 26.9307 95.0953 28.104 95.7353 28.936C96.3966 29.768 97.5379 30.184 99.1593 30.184C99.7353 30.184 100.354 30.1307 101.015 30.024C101.677 29.9173 102.285 29.7467 102.839 29.512L103.511 33.416C102.957 33.6507 102.263 33.8533 101.431 34.024C100.599 34.1947 99.6819 34.28 98.6793 34.28C97.1433 34.28 95.8206 34.056 94.7113 33.608C93.6019 33.1387 92.6846 32.5093 91.9592 31.72C91.2552 30.9307 90.7326 30.0027 90.3913 28.936C90.0713 27.848 89.9112 26.6747 89.9112 25.416Z" fill="#322153" id="svg_2"/><path d="M121.643 25.384C121.643 26.7067 121.451 27.9227 121.067 29.032C120.683 30.12 120.128 31.0587 119.403 31.848C118.677 32.616 117.803 33.2133 116.779 33.64C115.776 34.0667 114.645 34.28 113.387 34.28C112.149 34.28 111.019 34.0667 109.995 33.64C108.992 33.2133 108.128 32.616 107.403 31.848C106.677 31.0587 106.112 30.12 105.707 29.032C105.301 27.9227 105.099 26.7067 105.099 25.384C105.099 24.0613 105.301 22.856 105.707 21.768C106.133 20.68 106.709 19.752 107.435 18.984C108.181 18.216 109.056 17.6187 110.059 17.192C111.083 16.7653 112.192 16.552 113.387 16.552C114.603 16.552 115.712 16.7653 116.715 17.192C117.739 17.6187 118.613 18.216 119.339 18.984C120.064 19.752 120.629 20.68 121.035 21.768C121.44 22.856 121.643 24.0613 121.643 25.384ZM116.779 25.384C116.779 23.912 116.48 22.76 115.883 21.928C115.307 21.0747 114.475 20.648 113.387 20.648C112.299 20.648 111.456 21.0747 110.859 21.928C110.261 22.76 109.963 23.912 109.963 25.384C109.963 26.856 110.261 28.0293 110.859 28.904C111.456 29.7573 112.299 30.184 113.387 30.184C114.475 30.184 115.307 29.7573 115.883 28.904C116.48 28.0293 116.779 26.856 116.779 25.384Z" fill="#322153" id="svg_3"/><path d="M132.056 34.152C130.67 34.1307 129.539 33.9813 128.664 33.704C127.811 33.4267 127.128 33.0427 126.616 32.552C126.126 32.04 125.784 31.432 125.592 30.728C125.422 30.0027 125.336 29.192 125.336 28.296V9.768L130.104 9V27.336C130.104 27.7627 130.136 28.1467 130.2 28.488C130.264 28.8293 130.382 29.1173 130.552 29.352C130.744 29.5867 131.011 29.7787 131.352 29.928C131.694 30.0773 132.152 30.1733 132.728 30.216L132.056 34.152Z" fill="#322153" id="svg_4"/><path d="M134.661 25.544C134.661 24.0507 134.885 22.7493 135.333 21.64C135.803 20.5093 136.411 19.5707 137.157 18.824C137.904 18.0773 138.757 17.512 139.717 17.128C140.699 16.744 141.701 16.552 142.725 16.552C145.115 16.552 147.003 17.288 148.389 18.76C149.776 20.2107 150.469 22.3547 150.469 25.192C150.469 25.4693 150.459 25.7787 150.437 26.12C150.416 26.44 150.395 26.728 150.373 26.984H139.557C139.664 27.9653 140.123 28.744 140.933 29.32C141.744 29.896 142.832 30.184 144.197 30.184C145.072 30.184 145.925 30.1093 146.757 29.96C147.611 29.7893 148.304 29.5867 148.837 29.352L149.477 33.224C149.221 33.352 148.88 33.48 148.453 33.608C148.027 33.736 147.547 33.8427 147.013 33.928C146.501 34.0347 145.947 34.12 145.349 34.184C144.752 34.248 144.155 34.28 143.557 34.28C142.043 34.28 140.72 34.056 139.589 33.608C138.48 33.16 137.552 32.552 136.805 31.784C136.08 30.9947 135.536 30.0667 135.173 29C134.832 27.9333 134.661 26.7813 134.661 25.544ZM145.861 23.72C145.84 23.3147 145.765 22.92 145.637 22.536C145.531 22.152 145.349 21.8107 145.093 21.512C144.859 21.2133 144.549 20.968 144.165 20.776C143.803 20.584 143.344 20.488 142.789 20.488C142.256 20.488 141.797 20.584 141.413 20.776C141.029 20.9467 140.709 21.1813 140.453 21.48C140.197 21.7787 139.995 22.1307 139.845 22.536C139.717 22.92 139.621 23.3147 139.557 23.72H145.861Z" fill="#322153" id="svg_5"/><path d="M153.989 12.808L158.757 12.04V17H164.485V20.968H158.757V26.888C158.757 27.8907 158.927 28.6907 159.269 29.288C159.631 29.8853 160.346 30.184 161.413 30.184C161.925 30.184 162.447 30.1413 162.981 30.056C163.535 29.9493 164.037 29.8107 164.485 29.64L165.157 33.352C164.581 33.5867 163.941 33.7893 163.237 33.96C162.533 34.1307 161.669 34.216 160.645 34.216C159.343 34.216 158.266 34.0453 157.413 33.704C156.559 33.3413 155.877 32.8507 155.365 32.232C154.853 31.592 154.49 30.824 154.277 29.928C154.085 29.032 153.989 28.04 153.989 26.952V12.808Z" fill="#322153" id="svg_6"/><path d="M174.174 30.504C174.644 30.504 175.092 30.4933 175.519 30.472C175.945 30.4507 176.286 30.4187 176.543 30.376V26.76C176.351 26.7173 176.062 26.6747 175.678 26.632C175.294 26.5893 174.942 26.568 174.622 26.568C174.174 26.568 173.748 26.6 173.342 26.664C172.958 26.7067 172.617 26.8027 172.318 26.952C172.02 27.1013 171.785 27.304 171.615 27.56C171.444 27.816 171.358 28.136 171.358 28.52C171.358 29.2667 171.604 29.7893 172.094 30.088C172.606 30.3653 173.3 30.504 174.174 30.504ZM173.79 16.552C175.198 16.552 176.372 16.712 177.311 17.032C178.249 17.352 178.996 17.8107 179.55 18.408C180.126 19.0053 180.532 19.7307 180.767 20.584C181.001 21.4373 181.118 22.3867 181.118 23.432V33.352C180.436 33.5013 179.487 33.672 178.271 33.864C177.054 34.0773 175.582 34.184 173.854 34.184C172.767 34.184 171.775 34.088 170.879 33.896C170.004 33.704 169.246 33.3947 168.606 32.968C167.966 32.52 167.476 31.944 167.134 31.24C166.793 30.536 166.622 29.672 166.622 28.648C166.622 27.6667 166.814 26.8347 167.199 26.152C167.604 25.4693 168.137 24.9253 168.799 24.52C169.46 24.1147 170.217 23.8267 171.071 23.656C171.924 23.464 172.809 23.368 173.727 23.368C174.345 23.368 174.889 23.4 175.358 23.464C175.849 23.5067 176.244 23.5707 176.543 23.656V23.208C176.543 22.3973 176.297 21.7467 175.807 21.256C175.316 20.7653 174.463 20.52 173.246 20.52C172.436 20.52 171.636 20.584 170.846 20.712C170.057 20.8187 169.374 20.9787 168.799 21.192L168.19 17.352C168.468 17.2667 168.809 17.1813 169.215 17.096C169.641 16.9893 170.1 16.904 170.59 16.84C171.081 16.7547 171.593 16.6907 172.127 16.648C172.681 16.584 173.236 16.552 173.79 16.552Z" fill="#322153" id="svg_7"/><g class="" id="svg_21"><path d="m31.86060524285991,20.12619330240722 l9.788061791057475,-5.688105485057617 l4.385565722738816,8.223023196019772 c1.059321798548413,4.4927751580315345 -4.745731220751947,6.141515262616304 -9.40671111086629,5.8736023031712135 l-4.76691640293,-8.408520014133366 z" id="path2742" stroke-width="0.25000000pt" fill-rule="evenodd" fill="#34CB79" class=""/><path d="m29.63604645203653,25.999786847466158 l-5.148256481195789,8.841302017265363 l5.148256481195789,8.964949046449865 l0.12711455021789816,-3.5859732343770467 l4.703360856395842,0 c1.7160866461151252,0.14425890072310021 3.9406525817143083,-0.9480293543579122 4.766919860079584,-2.5349159823873624 l6.038075733707317,-10.757954966056902 c-1.9915043858785575,1.9166459192540501 -4.552300474818235,2.4112654960532756 -7.49993685177455,2.4112654960532756 l-7.944853565186963,0 l-0.19068058343912844,-3.3386722617088753 z" id="path2743" stroke-width="0.25000000pt" fill-rule="evenodd" fill="#34CB79" class=""/><path d="m18.133593055305298,15.09928738116518 l-9.863373950945807,-5.563619751383882 l5.262049366442544,-7.721187165177563 c3.523859664934644,-3.0816526653666765 7.823408164096283,1.0551517847194176 9.844984680875173,5.149275418416703 l-5.243660096371912,8.135531498144742 z" id="path2751" stroke-width="0.25000000pt" fill-rule="evenodd" fill="#34CB79" class=""/><path d="m24.492467263752143,14.140278695918031 l10.445340140575823,0.08705644274232296 l5.558680406533984,-8.729966473943373 l-3.284731739599527,1.6324819367564296 l-2.2829482034948803,-4.000113595518732 c-0.7032991181208871,-1.5295198402050825 -2.7647982221116294,-2.8912850692032777 -4.5921387075802285,-2.8237581797029203 l-12.599893726599934,0.08647356732235162 c2.689306751398174,0.7634327779961574 4.376826509542117,2.7012595003721187 5.807574548969079,5.208169459689247 l3.8563127671155977,6.756935827823634 l-2.908195601158238,1.7827211300693642 z" id="path2752" stroke-width="0.25000000pt" fill-rule="evenodd" fill="#34CB79" class=""/><path d="m0.7224362242400064,14.638664721951422 l3.0561172366279488,2.273363141033138 l-2.8763422315535747,5.246218502302867 c-1.4381701938702314,2.4190815350725554 1.032495700631418,4.775692492388936 2.6066849096663933,5.595960233365022 c1.5496878137370131,0.8075087847190001 3.954976474350039,0.9035137134462145 6.202116674830383,0.8743770872234917 l4.044856947349736,-6.2954646688634766 l3.0561189652027387,1.57387276460966 l-5.30325743710829,-9.355758026951351 l-10.786295065015333,0.08743108251897888 z" id="path2753" stroke-width="0.25000000pt" fill-rule="evenodd" fill="#34CB79" class=""/><path d="m1.171870279776357,26.792405573685784 l6.561664956404336,11.54167268447927 c1.3183161187333612,1.6030181489446718 3.80515928376307,1.981903535767045 6.381888107516851,1.9236196813961919 l6.921202636052895,0 l0,-10.92962030487394 l-13.123329797570351,-0.08744156920605246 c-2.037412681881266,0.11657819542878292 -4.704020250059952,-0.29145084715381436 -6.74142590240373,-2.448230491795472 z" id="path2754" stroke-width="0.25000000pt" fill-rule="evenodd" fill="#34CB79" class=""/></g><g class="" id="svg_22"><path d="M-65.75015850830079,20.673150197143556 L-70.32505850830078,29.409630197143557 C-70.62047850830078,29.973630197143557 -70.42594850830078,30.678930197143554 -69.88755850830078,30.996030197143554 L-62.724058508300786,35.21573019714356 C-62.17815850830078,35.53723019714356 -61.48425850830078,35.33953019714355 -61.17385850830078,34.77393019714356 L-52.41765850830078,18.824174881143556 H-62.75205850830078 C-64.00295850830078,18.824174881143556 -65.15355850830078,19.533703197143556 -65.75015850830079,20.673150197143556 z" fill="#29A361" id="svg_8" class=""/><path d="M-52.41815850830078,18.823530197143555 L-61.173958508300785,34.77353019714356 C-61.48495850830078,35.338930197143554 -62.17845850830078,35.537130197143554 -62.724058508300786,35.21583019714355 L-64.59385850830078,34.114830197143554 C-64.13795850830078,34.19093019714356 -63.66375850830078,33.973830197143556 -63.42235850830078,33.53343019714355 L-55.34535850830078,18.823530197143555 H-52.41815850830078 z" fill="#248F55" id="svg_9" class=""/><path d="M-42.83725850830078,27.282750197143557 L-45.99265850830078,20.772540197143556 C-46.57155850830078,19.578104197143556 -47.75115850830078,18.824174881143556 -49.040858508300786,18.824174881143556 H-58.16415850830078 L-51.159358508300784,31.140130197143556 C-51.18225850830078,31.150830197143556 -51.205358508300776,31.161530197143556 -51.228358508300786,31.172230197143556 C-51.66895850830078,31.377730197143556 -51.65095850830078,32.032830197143554 -51.19985850830078,32.21233019714356 L-45.15115850830078,34.619530197143554 C-44.870858508300785,34.73113019714356 -44.55635850830078,34.58603019714356 -44.448758508300784,34.29563019714355 L-42.11705850830078,28.003060197143554 C-41.94465850830078,27.537590197143555 -42.39735850830078,27.088440197143555 -42.83725850830078,27.282750197143557 z" fill="#34CB79" id="svg_10" class=""/><path d="M-42.11705850830078,28.002520197143554 L-44.44945850830078,34.295030197143554 C-44.55655850830078,34.58623019714356 -44.87155850830078,34.73143019714355 -45.15155850830078,34.619330197143555 L-46.98175850830078,33.89063019714355 L-44.79995850830078,28.002520197143554 C-44.67595850830078,27.668590197143555 -44.874058508300784,27.343410197143555 -45.15825850830078,27.258110197143555 C-45.42895850830078,27.176790197143553 -45.66005850830078,26.993070197143552 -45.78655850830078,26.732110197143555 L-48.675658508300785,20.772280197143555 C-49.25425850830078,19.578236197143553 -50.43345850830078,18.823530197143555 -51.72365850830078,18.823530197143555 H-49.04075850830078 C-47.75145850830078,18.823530197143555 -46.572258508300784,19.578236197143553 -45.99275850830078,20.772280197143555 L-42.83755850830078,27.282980197143555 C-42.39705850830078,27.088770197143553 -41.94505850830078,27.537140197143554 -42.11705850830078,28.002520197143554 z" fill="#2FB86E" id="svg_11" class=""/><path d="M-48.93275850830078,52.382830197143555 C-49.01775850830078,52.021330197143556 -49.46775850830078,51.866530197143554 -49.74235850830078,52.151030197143555 L-54.46995850830078,57.05033019714355 C-54.658558508300786,57.245830197143555 -54.658558508300786,57.562630197143555 -54.46995850830078,57.758030197143555 L-49.72415850830078,62.67613019714356 C-49.451358508300785,62.958830197143556 -49.00595850830078,62.807930197143556 -48.91635850830078,62.452630197143556 H-41.93735850830078 C-40.65245850830078,62.452630197143556 -39.47655850830078,61.70443019714355 -38.895258508300785,60.51693019714355 L-34.91305850830078,52.38273019714355 H-48.93275850830078 V52.382830197143555 z" fill="#29A361" id="svg_12" class=""/><path d="M-43.04135850830078,52.38293019714355 L-40.77845850830078,55.931430197143555 C-40.26685850830078,56.733630197143555 -40.21025850830078,57.75883019714355 -40.63015850830078,58.616330197143554 L-41.56085850830078,60.517030197143555 C-42.14125850830078,61.704130197143556 -43.31765850830078,62.452830197143555 -44.60215850830078,62.452830197143555 H-41.93745850830078 C-40.652958508300785,62.452830197143555 -39.47665850830078,61.704130197143556 -38.89515850830078,60.517030197143555 L-34.91325850830078,52.383030197143555 H-43.04135850830078 V52.38293019714355 z" fill="#248F55" id="svg_13" class=""/><path d="M-58.45675850830078,61.517430197143554 V52.85913019714356 C-58.45675850830078,52.20843019714356 -58.965858508300784,51.68073019714355 -59.593858508300784,51.68073019714355 H-78.32428850830078 L-73.50403850830078,60.85163019714356 C-72.90656850830078,61.98843019714356 -71.75746850830078,62.69583019714356 -70.50843850830078,62.69583019714356 H-59.593858508300784 C-58.96595850830078,62.69583019714356 -58.45675850830078,62.168330197143554 -58.45675850830078,61.517430197143554 z" fill="#29A361" id="svg_14" class=""/><path d="M-70.38065850830078,51.68153019714355 L-74.54034850830078,58.88083019714355 L-78.32428850830078,51.68153019714355 H-70.38065850830078 z" fill="#248F55" id="svg_15" class=""/><path d="M-58.45715850830078,52.85933019714356 V61.517930197143556 C-58.45715850830078,62.16853019714355 -58.96615850830078,62.695930197143554 -59.593858508300784,62.695930197143554 H-62.57725850830078 C-61.94945850830078,62.695930197143554 -61.44045850830078,62.16853019714355 -61.44045850830078,61.517930197143556 V52.85933019714356 C-61.44045850830078,52.20873019714355 -61.94945850830078,51.68133019714355 -62.57725850830078,51.68133019714355 H-59.593858508300784 C-58.96615850830078,51.681230197143556 -58.45715850830078,52.20873019714355 -58.45715850830078,52.85933019714356 z" fill="#248F55" id="svg_16" class=""/><path d="M-67.60745850830078,44.030130197143556 L-68.44855850830078,37.47023019714355 C-68.49015850830078,37.146130197143556 -68.77735850830078,36.91843019714355 -69.09005850830079,36.96143019714356 L-75.44431850830078,37.83643019714356 C-75.92281850830078,37.902330197143556 -76.10113850830078,38.50553019714356 -75.77338850830078,38.841130197143556 L-79.78363650830079,44.831230197143555 C-80.51891750830079,45.929530197143556 -80.59354250830079,47.363530197143554 -79.97657350830079,48.537330197143554 L-75.61260850830078,56.840230197143555 L-68.52675850830079,44.57423019714356 C-68.52425850830078,44.576130197143556 -68.52185850830078,44.57813019714355 -68.51925850830078,44.58013019714355 C-68.11485850830078,44.898230197143555 -67.54065850830078,44.551730197143556 -67.60745850830078,44.030130197143556 z" fill="#34CB79" id="svg_17" class=""/><path d="M-68.51965850830078,44.58013019714355 C-68.52165850830079,44.578030197143555 -68.52445850830078,44.576130197143556 -68.52645850830078,44.57413019714355 L-75.61254850830078,56.839830197143556 L-77.06988850830078,54.067330197143555 L-71.30238850830078,44.082130197143556 L-71.14245850830078,43.805130197143555 C-71.05498850830078,43.65373019714356 -70.88407850830077,43.588330197143556 -70.71692850830078,43.621930197143556 C-70.71607850830078,43.622130197143555 -70.71523850830079,43.62223019714355 -70.71438850830079,43.62243019714356 C-70.35875850830078,43.68813019714355 -69.99405850830078,43.381130197143555 -70.04865850830078,42.95973019714356 L-70.78751850830078,37.194730197143556 L-69.09065850830078,36.96153019714356 C-68.77765850830079,36.91853019714355 -68.48985850830078,37.146730197143555 -68.44835850830079,37.469930197143555 L-67.60715850830078,44.030730197143555 C-67.54035850830078,44.55203019714355 -68.11505850830078,44.89833019714355 -68.51965850830078,44.58013019714355 z" fill="#2FB86E" id="svg_18" class=""/><path d="M-32.996258508300784,44.38043019714355 L-38.48185850830078,36.14323019714355 C-38.81825850830078,35.637930197143554 -39.47285850830078,35.48503019714356 -39.98595850830078,35.79193019714356 L-47.134758508300784,40.06703019714355 C-47.70215850830078,40.406330197143554 -47.87625850830078,41.17103019714355 -47.51505850830078,41.73743019714355 L-37.43725850830078,57.538630197143554 L-32.76155850830078,47.98783019714355 C-32.19565850830078,46.83183019714355 -32.285658508300784,45.447430197143554 -32.996258508300784,44.38043019714355 z" fill="#34CB79" id="svg_19" class=""/><path d="M-32.76165850830078,47.98803019714356 L-37.438058508300784,57.53833019714355 L-39.00645850830078,55.07813019714356 L-35.53535850830078,47.987930197143555 C-34.96945850830078,46.831930197143556 -35.05925850830078,45.44773019714356 -35.77005850830078,44.380730197143556 L-41.061558508300784,36.43583019714356 L-39.98575850830078,35.79223019714355 C-39.47285850830078,35.484930197143555 -38.81805850830078,35.63803019714355 -38.48195850830078,36.143530197143555 L-32.996258508300784,44.38083019714355 C-32.28555850830078,45.44783019714356 -32.195758508300784,46.83203019714355 -32.76165850830078,47.98803019714356 z" fill="#2FB86E" id="svg_20" class=""/></g></g></svg>