<?xml version="1.0"?><svg width="640" height="480" xmlns="http://www.w3.org/2000/svg">
 <g>
  <title>Layer 1</title>
  <g id="layer1">
   <g id="g3535">
    <path d="m422.657867,232.264114l84.937561,-49.359497l38.056488,71.356674c9.192444,38.986816 -41.181885,53.294037 -81.628326,50.969177l-41.365723,-72.966354z" id="path2742" stroke-width="0.25000000pt" fill-rule="evenodd" fill="#34CB79"/>
    <path d="m403.353882,283.233215l-44.674866,76.721893l44.674866,77.794861l1.103058,-31.117889l40.814209,0c14.891632,1.251831 34.195679,-8.226685 41.365753,-21.997162l52.396423,-93.353973c-17.281616,16.632019 -39.503357,20.924164 -65.08197,20.924164l-68.94281,0l-1.654663,-28.971893z" id="path2743" stroke-width="0.25000000pt" fill-rule="evenodd" fill="#34CB79"/>
    <path d="m303.539398,188.642288l-85.591095,-48.279251l45.662323,-67.001907c30.578888,-26.741562 67.888947,9.156258 85.431519,44.683708l-45.502747,70.59745z" id="path2751" stroke-width="0.25000000pt" fill-rule="evenodd" fill="#34CB79"/>
    <path d="m358.719604,180.320328l90.641205,0.755447l48.236389,-75.75576l-28.503815,14.166138l-19.810669,-34.711662c-6.102997,-13.272667 -23.992004,-25.089615 -39.84906,-24.503639l-109.337708,0.750389c23.336914,6.624817 37.980652,23.440636 50.39621,45.194771l33.463806,58.634453l-25.236359,15.469864z" id="path2752" stroke-width="0.25000000pt" fill-rule="evenodd" fill="#34CB79"/>
    <path d="m152.451141,184.645157l26.519974,19.727493l-24.959946,45.524948c-12.479965,20.991989 8.959656,41.441879 22.619949,48.559891c13.447678,7.007294 34.319977,7.840393 53.819916,7.587555l35.09993,-54.629959l26.519989,13.657547l-46.019913,-81.186172l-93.599899,0.758698z" id="path2753" stroke-width="0.25000000pt" fill-rule="evenodd" fill="#34CB79"/>
    <path d="m156.351181,290.111298l56.939957,100.154816c11.439911,13.910461 33.019913,17.198303 55.379913,16.692535l60.059906,0l0,-94.843628l-113.879913,-0.758789c-17.679993,1.011627 -40.819931,-2.529114 -58.499863,-21.244934z" id="path2754" stroke-width="0.25000000pt" fill-rule="evenodd" fill="#34CB79"/>
   </g>
  </g>
 </g>
</svg>